<?xml version="1.0" encoding="UTF-8" standalone="no"?>
<!DOCTYPE svg PUBLIC "-//W3C//DTD SVG 1.1//EN" "http://www.w3.org/Graphics/SVG/1.1/DTD/svg11.dtd">
<!-- Generated by graphviz version 2.40.1 (20161225.0304)
 -->
<!-- Title: G Pages: 1 -->
<svg width="370pt" height="923pt" viewBox="0.00 0.00 370.00 922.81" xmlns="http://www.w3.org/2000/svg" xmlns:xlink="http://www.w3.org/1999/xlink">
<g id="graph0" class="graph" transform="scale(1 1) rotate(0) translate(4 918.8146)">
<title>G</title>
<polygon fill="#ffffff" stroke="transparent" points="-4,4 -4,-918.8146 366,-918.8146 366,4 -4,4"/>
<g id="clust1" class="cluster">
<title>cluster_0</title>
<polygon fill="#d3d3d3" stroke="#d3d3d3" points="8,-65.2146 8,-849.8146 354,-849.8146 354,-65.2146 8,-65.2146"/>
</g>
<!-- lm -->
<g id="node1" class="node">
<title>lm</title>
<polygon fill="none" stroke="#000000" points="276.1883,-841.8146 109.8117,-841.8146 109.8117,-805.8146 282.1883,-805.8146 282.1883,-835.8146 276.1883,-841.8146"/>
<polyline fill="none" stroke="#000000" points="276.1883,-841.8146 276.1883,-835.8146 "/>
<polyline fill="none" stroke="#000000" points="282.1883,-835.8146 276.1883,-835.8146 "/>
<text text-anchor="middle" x="196" y="-819.6146" font-family="Times,serif" font-size="14.00" fill="#000000">$ limactl start $INSTANCE</text>
</g>
<!-- lm&#45;&gt;lm -->
<g id="edge2" class="edge">
<title>lm:e-&gt;lm:w</title>
<path fill="none" stroke="#000000" d="M282,-823.8146C300.344,-835.8146 300.344,-859.8146 196,-859.8146 109.5901,-859.8146 94.7384,-843.3556 102.6037,-830.8828"/>
<polygon fill="#000000" stroke="#000000" points="105.1885,-833.2539 110,-823.8146 100.3523,-828.1932 105.1885,-833.2539"/>
<text text-anchor="start" x="107.1518" y="-865.0146" font-family="Times,serif" font-weight="bold" font-style="italic" font-size="14.00" fill="#000000">Wait until Lima up and running</text>
</g>
<!-- lms -->
<g id="node2" class="node">
<title>lms</title>
<polygon fill="none" stroke="#000000" points="331.0406,-730.8146 54.9594,-730.8146 54.9594,-694.8146 337.0406,-694.8146 337.0406,-724.8146 331.0406,-730.8146"/>
<polyline fill="none" stroke="#000000" points="331.0406,-730.8146 331.0406,-724.8146 "/>
<polyline fill="none" stroke="#000000" points="337.0406,-724.8146 331.0406,-724.8146 "/>
<text text-anchor="middle" x="196" y="-708.6146" font-family="Times,serif" font-size="14.00" fill="#000000">$ limactl show-ssh --format=args $INSTANCE</text>
</g>
<!-- lm&#45;&gt;lms -->
<g id="edge1" class="edge">
<title>lm-&gt;lms</title>
<path fill="none" stroke="#000000" d="M196,-805.4852C196,-788.0519 196,-761.5628 196,-741.3635"/>
<polygon fill="#000000" stroke="#000000" points="199.5001,-741.1712 196,-731.1712 192.5001,-741.1713 199.5001,-741.1712"/>
</g>
<!-- lmi -->
<g id="node3" class="node">
<title>lmi</title>
<polygon fill="none" stroke="#000000" points="292.079,-619.8146 93.921,-619.8146 93.921,-583.8146 298.079,-583.8146 298.079,-613.8146 292.079,-619.8146"/>
<polyline fill="none" stroke="#000000" points="292.079,-619.8146 292.079,-613.8146 "/>
<polyline fill="none" stroke="#000000" points="298.079,-613.8146 292.079,-613.8146 "/>
<text text-anchor="middle" x="196" y="-597.6146" font-family="Times,serif" font-size="14.00" fill="#000000">$ limactl shell $INSTANCE id -u</text>
</g>
<!-- lms&#45;&gt;lmi -->
<g id="edge3" class="edge">
<title>lms-&gt;lmi</title>
<path fill="none" stroke="#000000" d="M196,-694.4852C196,-677.0519 196,-650.5628 196,-630.3635"/>
<polygon fill="#000000" stroke="#000000" points="199.5001,-630.1712 196,-620.1712 192.5001,-630.1713 199.5001,-630.1712"/>
</g>
<!-- lmsocat -->
<g id="node4" class="node">
<title>lmsocat</title>
<polygon fill="none" stroke="#000000" points="320.2239,-493.0146 15.7761,-493.0146 15.7761,-457.0146 326.2239,-457.0146 326.2239,-487.0146 320.2239,-493.0146"/>
<polyline fill="none" stroke="#000000" points="320.2239,-493.0146 320.2239,-487.0146 "/>
<polyline fill="none" stroke="#000000" points="326.2239,-487.0146 320.2239,-487.0146 "/>
<text text-anchor="middle" x="171" y="-470.8146" font-family="Times,serif" font-size="14.00" fill="#000000">$ limactl shell $INSTANCE sudo apt install -y socat</text>
</g>
<!-- lmi&#45;&gt;lmsocat -->
<g id="edge4" class="edge">
<title>lmi-&gt;lmsocat</title>
<path fill="none" stroke="#000000" d="M192.4181,-583.6473C188.2597,-562.5557 181.3536,-527.5282 176.5105,-502.964"/>
<polygon fill="#000000" stroke="#000000" points="179.9436,-502.2823 174.5752,-493.1482 173.0758,-503.6364 179.9436,-502.2823"/>
<text text-anchor="middle" x="198.5782" y="-534.2146" font-family="Times,serif" font-size="14.00" fill="#000000">if tcp</text>
</g>
<!-- tcp -->
<g id="node7" class="node">
<title>tcp</title>
<polygon fill="none" stroke="#000000" points="334.4398,-439.0146 191.5602,-439.0146 191.5602,-403.0146 340.4398,-403.0146 340.4398,-433.0146 334.4398,-439.0146"/>
<polyline fill="none" stroke="#000000" points="334.4398,-439.0146 334.4398,-433.0146 "/>
<polyline fill="none" stroke="#000000" points="340.4398,-433.0146 334.4398,-433.0146 "/>
<text text-anchor="middle" x="266" y="-416.8146" font-family="Times,serif" font-size="14.00" fill="#000000">generate tcp connection</text>
</g>
<!-- lmi&#45;&gt;tcp -->
<g id="edge5" class="edge">
<title>lmi-&gt;tcp</title>
<path fill="none" stroke="#000000" d="M235.0978,-583.7943C268.5272,-565.996 314.3977,-535.3038 335,-493.0146 342.0075,-478.6307 343.2941,-470.697 335,-457.0146 332.3111,-452.5788 328.8769,-448.6638 324.9814,-445.2131"/>
<polygon fill="#000000" stroke="#000000" points="327.0733,-442.4068 316.9964,-439.1349 322.8335,-447.9768 327.0733,-442.4068"/>
<text text-anchor="middle" x="325.4709" y="-534.2146" font-family="Times,serif" font-size="14.00" fill="#000000">if unix</text>
</g>
<!-- socket -->
<g id="node8" class="node">
<title>socket</title>
<polygon fill="none" stroke="#000000" points="234.9589,-347.0146 123.0411,-347.0146 123.0411,-311.0146 240.9589,-311.0146 240.9589,-341.0146 234.9589,-347.0146"/>
<polyline fill="none" stroke="#000000" points="234.9589,-347.0146 234.9589,-341.0146 "/>
<polyline fill="none" stroke="#000000" points="240.9589,-341.0146 234.9589,-341.0146 "/>
<text text-anchor="middle" x="182" y="-324.8146" font-family="Times,serif" font-size="14.00" fill="#000000">socket forwarding</text>
</g>
<!-- lmsocat&#45;&gt;socket -->
<g id="edge6" class="edge">
<title>lmsocat-&gt;socket</title>
<path fill="none" stroke="#000000" d="M172.3709,-456.8188C174.2483,-431.9014 177.6381,-386.9084 179.8537,-357.5023"/>
<polygon fill="#000000" stroke="#000000" points="183.3505,-357.6744 180.6118,-347.4397 176.3703,-357.1485 183.3505,-357.6744"/>
</g>
<!-- shell -->
<g id="node5" class="node">
<title>shell</title>
<polygon fill="none" stroke="#000000" points="308.9642,-236.0146 127.0358,-236.0146 127.0358,-200.0146 314.9642,-200.0146 314.9642,-230.0146 308.9642,-236.0146"/>
<polyline fill="none" stroke="#000000" points="308.9642,-236.0146 308.9642,-230.0146 "/>
<polyline fill="none" stroke="#000000" points="314.9642,-230.0146 308.9642,-230.0146 "/>
<text text-anchor="middle" x="221" y="-213.8146" font-family="Times,serif" font-size="14.00" fill="#000000">$ sh -c $CONNECTION_STR</text>
</g>
<!-- shell&#45;&gt;shell -->
<g id="edge9" class="edge">
<title>shell:e-&gt;shell:w</title>
<path fill="none" stroke="#000000" d="M315,-218.0146C332.7318,-230.0146 332.7318,-254.0146 221,-254.0146 128.4721,-254.0146 112.5689,-237.5556 119.9058,-225.0828"/>
<polygon fill="#000000" stroke="#000000" points="122.3862,-227.5521 127,-218.0146 117.4456,-222.5932 122.3862,-227.5521"/>
<text text-anchor="start" x="181.156" y="-259.2146" font-family="Times,serif" font-weight="bold" font-style="italic" font-size="14.00" fill="#000000">Wait Interrupt</text>
</g>
<!-- pause -->
<g id="node6" class="node">
<title>pause</title>
<polygon fill="none" stroke="#000000" points="305.4614,-109.2146 130.5386,-109.2146 130.5386,-73.2146 311.4614,-73.2146 311.4614,-103.2146 305.4614,-109.2146"/>
<polyline fill="none" stroke="#000000" points="305.4614,-109.2146 305.4614,-103.2146 "/>
<polyline fill="none" stroke="#000000" points="311.4614,-103.2146 305.4614,-103.2146 "/>
<text text-anchor="middle" x="221" y="-87.0146" font-family="Times,serif" font-size="14.00" fill="#000000">$ limactl pause $INSTANCE</text>
</g>
<!-- shell&#45;&gt;pause -->
<g id="edge10" class="edge">
<title>shell-&gt;pause</title>
<path fill="none" stroke="#000000" d="M221,-199.8473C221,-178.8498 221,-144.0407 221,-119.4936"/>
<polygon fill="#000000" stroke="#000000" points="224.5001,-119.3482 221,-109.3482 217.5001,-119.3483 224.5001,-119.3482"/>
<text text-anchor="middle" x="279.3086" y="-150.4146" font-family="Times,serif" font-size="14.00" fill="#000000">on interrupt received</text>
</g>
<!-- end -->
<g id="node10" class="node">
<title>end</title>
<polygon fill="none" stroke="#000000" points="239.2152,-36.3225 202.7848,-36.3225 202.7848,.1079 239.2152,.1079 239.2152,-36.3225"/>
<polyline fill="none" stroke="#000000" points="214.7848,-36.3225 202.7848,-24.3225 "/>
<polyline fill="none" stroke="#000000" points="202.7848,-11.8921 214.7848,.1079 "/>
<polyline fill="none" stroke="#000000" points="227.2152,.1079 239.2152,-11.8921 "/>
<polyline fill="none" stroke="#000000" points="239.2152,-24.3225 227.2152,-36.3225 "/>
<text text-anchor="middle" x="221" y="-13.9073" font-family="Times,serif" font-size="14.00" fill="#000000">end</text>
</g>
<!-- pause&#45;&gt;end -->
<g id="edge12" class="edge">
<title>pause-&gt;end</title>
<path fill="none" stroke="#000000" d="M221,-73.1431C221,-65.059 221,-55.3383 221,-46.3305"/>
<polygon fill="#000000" stroke="#000000" points="224.5001,-46.2242 221,-36.2242 217.5001,-46.2243 224.5001,-46.2242"/>
</g>
<!-- tcp&#45;&gt;shell -->
<g id="edge7" class="edge">
<title>tcp-&gt;shell</title>
<path fill="none" stroke="#000000" d="M264.5,-402.5281C263.75,-391.7409 263,-377.8659 263,-365.5146 263,-365.5146 263,-365.5146 263,-273.5146 263,-262.5262 257.7003,-252.3413 250.866,-243.7755"/>
<polygon fill="#000000" stroke="#000000" points="253.2497,-241.1914 243.9662,-236.0858 248.0396,-245.8663 253.2497,-241.1914"/>
</g>
<!-- socket&#45;&gt;shell -->
<g id="edge8" class="edge">
<title>socket-&gt;shell</title>
<path fill="none" stroke="#000000" d="M188.4401,-310.6852C194.6217,-293.0912 204.0441,-266.2737 211.165,-246.0066"/>
<polygon fill="#000000" stroke="#000000" points="214.5376,-246.9661 214.5504,-236.3712 207.9333,-244.6456 214.5376,-246.9661"/>
</g>
<!-- start -->
<g id="node9" class="node">
<title>start</title>
<polygon fill="none" stroke="#000000" points="196,-914.8146 156.7627,-896.8146 196,-878.8146 235.2373,-896.8146 196,-914.8146"/>
<polyline fill="none" stroke="#000000" points="167.6698,-901.8182 167.6698,-891.811 "/>
<polyline fill="none" stroke="#000000" points="185.0929,-883.8182 206.9071,-883.8182 "/>
<polyline fill="none" stroke="#000000" points="224.3302,-891.811 224.3302,-901.8182 "/>
<polyline fill="none" stroke="#000000" points="206.9071,-909.811 185.0929,-909.811 "/>
<text text-anchor="middle" x="196" y="-892.6146" font-family="Times,serif" font-size="14.00" fill="#000000">start</text>
</g>
<!-- start&#45;&gt;lm -->
<g id="edge11" class="edge">
<title>start-&gt;lm</title>
<path fill="none" stroke="#000000" d="M196,-878.7697C196,-870.6974 196,-860.991 196,-851.9963"/>
<polygon fill="#000000" stroke="#000000" points="199.5001,-851.9049 196,-841.905 192.5001,-851.905 199.5001,-851.9049"/>
</g>
</g>
</svg>